<?xml version="1.0" encoding="iso-8859-1"?>
<!-- Uploaded to: SVG Repo, www.svgrepo.com, Generator: SVG Repo Mixer Tools -->
<svg height="800px" width="800px" version="1.1" id="Layer_1" xmlns="http://www.w3.org/2000/svg" xmlns:xlink="http://www.w3.org/1999/xlink" 
	 viewBox="0 0 512.213 512.213" xml:space="preserve">
<g transform="translate(1 1)">
	<g>
		<polygon style="fill:#FFE100;" points="109.773,383.213 178.04,383.213 178.04,332.013 109.773,332.013 		"/>
		<polygon style="fill:#FFE100;" points="109.773,434.413 178.04,434.413 178.04,383.213 109.773,383.213 		"/>
		<polygon style="fill:#FFE100;" points="109.773,485.613 178.04,485.613 178.04,434.413 109.773,434.413 		"/>
		<path style="fill:#FFE100;" d="M314.573,186.947h-51.2v-34.133h17.067C299.213,152.813,314.573,168.173,314.573,186.947z"/>
		<polygon style="fill:#FFE100;" points="24.44,332.013 263.373,332.013 263.373,110.147 24.44,110.147 		"/>
	</g>
	<polygon style="fill:#FFA800;" points="237.773,332.013 263.373,332.013 263.373,110.147 237.773,110.147 	"/>
	<polygon style="fill:#FFFFFF;" points="24.44,332.013 50.04,332.013 50.04,110.147 24.44,110.147 	"/>
	<polygon style="fill:#FFE100;" points="143.907,7.747 280.44,110.147 7.373,110.147 	"/>
	<polygon style="fill:#FFFFFF;" points="143.907,7.747 7.373,110.147 50.04,110.147 149.027,11.16 	"/>
	<polygon style="fill:#FFA800;" points="143.907,7.747 280.44,110.147 237.773,110.147 138.787,11.16 	"/>
	<path style="fill:#FDCC00;" d="M195.107,332.013h-102.4v-102.4c0-28.16,23.04-51.2,51.2-51.2s51.2,23.04,51.2,51.2V332.013z"/>
	<path style="fill:#FFA800;" d="M143.907,178.413c-2.56,0-5.973,0-8.533,0.853c23.893,4.267,42.667,24.747,42.667,50.347v102.4
		h17.067v-102.4C195.107,201.453,172.067,178.413,143.907,178.413"/>
	<g>
		<polygon style="fill:#00DA6C;" points="41.507,502.68 75.64,502.68 75.64,332.013 41.507,332.013 		"/>
		<polygon style="fill:#00DA6C;" points="212.173,502.68 246.307,502.68 246.307,332.013 212.173,332.013 		"/>
		<path style="fill:#00DA6C;" d="M485.24,468.547c-48.64,0-93.867-9.387-93.867-76.8c0-80.213-83.627-120.32-128-129.707v35.84
			c16.213,4.267,93.867,26.453,93.867,93.867c0,73.387,42.667,110.933,128,110.933h17.067v-34.133H485.24z"/>
	</g>
	<path d="M263.373,340.547H24.44c-5.12,0-8.533-3.413-8.533-8.533V110.147c0-5.12,3.413-8.533,8.533-8.533h238.933
		c5.12,0,8.533,3.413,8.533,8.533v221.867C271.907,337.133,268.493,340.547,263.373,340.547z M32.973,323.48H254.84v-204.8H32.973
		V323.48z"/>
	<path d="M280.44,118.68H7.373c-3.413,0-6.827-2.56-7.68-5.973s0-7.68,2.56-9.387L138.787,0.92c3.413-2.56,6.827-2.56,10.24,0
		l136.533,102.4c2.56,2.56,4.267,5.973,2.56,9.387C287.267,116.12,283.853,118.68,280.44,118.68z M32.973,101.613H254.84
		L143.907,17.987L32.973,101.613z"/>
	<path d="M75.64,511.213H41.507c-5.12,0-8.533-3.413-8.533-8.533V332.013c0-5.12,3.413-8.533,8.533-8.533H75.64
		c5.12,0,8.533,3.413,8.533,8.533V502.68C84.173,507.8,80.76,511.213,75.64,511.213z M50.04,494.147h17.067v-153.6H50.04V494.147z"
		/>
	<path d="M246.307,511.213h-34.133c-5.12,0-8.533-3.413-8.533-8.533V332.013c0-5.12,3.413-8.533,8.533-8.533h34.133
		c5.12,0,8.533,3.413,8.533,8.533V502.68C254.84,507.8,251.427,511.213,246.307,511.213z M220.707,494.147h17.067v-153.6h-17.067
		V494.147z"/>
	<path d="M195.107,340.547h-102.4c-5.12,0-8.533-3.413-8.533-8.533v-102.4c0-33.28,26.453-59.733,59.733-59.733
		s59.733,26.453,59.733,59.733v102.4C203.64,337.133,200.227,340.547,195.107,340.547z M101.24,323.48h85.333v-93.867
		c0-23.893-18.773-42.667-42.667-42.667s-42.667,18.773-42.667,42.667V323.48z"/>
	<path d="M178.04,391.747h-68.267c-5.12,0-8.533-3.413-8.533-8.533v-51.2c0-5.12,3.413-8.533,8.533-8.533h68.267
		c5.12,0,8.533,3.413,8.533,8.533v51.2C186.573,388.333,183.16,391.747,178.04,391.747z M118.307,374.68h51.2v-34.133h-51.2V374.68z
		"/>
	<path d="M178.04,442.947h-68.267c-5.12,0-8.533-3.413-8.533-8.533v-51.2c0-5.12,3.413-8.533,8.533-8.533h68.267
		c5.12,0,8.533,3.413,8.533,8.533v51.2C186.573,439.533,183.16,442.947,178.04,442.947z M118.307,425.88h51.2v-34.133h-51.2V425.88z
		"/>
	<path d="M178.04,494.147h-68.267c-5.12,0-8.533-3.413-8.533-8.533v-51.2c0-5.12,3.413-8.533,8.533-8.533h68.267
		c5.12,0,8.533,3.413,8.533,8.533v51.2C186.573,490.733,183.16,494.147,178.04,494.147z M118.307,477.08h51.2v-34.133h-51.2V477.08z
		"/>
	<path d="M109.773,511.213c-5.12,0-8.533-3.413-8.533-8.533v-17.067c0-5.12,3.413-8.533,8.533-8.533s8.533,3.413,8.533,8.533v17.067
		C118.307,507.8,114.893,511.213,109.773,511.213z"/>
	<path d="M178.04,511.213c-5.12,0-8.533-3.413-8.533-8.533v-17.067c0-5.12,3.413-8.533,8.533-8.533c5.12,0,8.533,3.413,8.533,8.533
		v17.067C186.573,507.8,183.16,511.213,178.04,511.213z"/>
	<path d="M314.573,195.48h-51.2c-5.12,0-8.533-3.413-8.533-8.533v-34.133c0-5.12,3.413-8.533,8.533-8.533h17.067
		c23.893,0,42.667,18.773,42.667,42.667C323.107,192.067,319.693,195.48,314.573,195.48z M271.907,178.413h32.427
		c-3.413-10.24-12.8-17.067-23.893-17.067h-8.533V178.413z"/>
	<path d="M502.307,511.213H485.24c-112.64,0-136.533-64.853-136.533-119.467c0-61.44-72.533-81.92-87.04-85.333
		c-4.267-0.853-6.827-4.267-6.827-8.533v-35.84c0-2.56,0.853-5.12,3.413-6.827c1.707-1.707,4.267-2.56,6.827-1.707
		c46.933,10.24,134.827,52.053,134.827,138.24c0,57.173,32.427,68.267,85.333,68.267h17.067c5.12,0,8.533,3.413,8.533,8.533v34.133
		C510.84,507.8,507.427,511.213,502.307,511.213z M271.907,291.907c25.6,7.68,93.867,33.28,93.867,99.84
		c0,69.12,39.253,102.4,119.467,102.4h8.533V477.08h-8.533c-50.347,0-102.4-10.24-102.4-85.333
		c0-69.973-67.413-106.667-110.933-118.613V291.907z"/>
</g>
</svg>